HIERARCHY
ROOT hip
{
	OFFSET 0.000000 0.000000 0.000000 
	CHANNELS 6 Xposition Yposition Zposition Xrotation Zrotation Yrotation
	JOINT abdomen
	{
		OFFSET 0.000000 3.402643 0.000000 
		CHANNELS 3 Xrotation Zrotation Yrotation
		JOINT chest
		{
			OFFSET 0.000000 8.438565 -0.680529 
			CHANNELS 3 Xrotation Zrotation Yrotation
			JOINT neck
			{
				OFFSET 0.000000 10.207942 -0.272212 
				CHANNELS 3 Xrotation Zrotation Yrotation
				JOINT head
				{
					OFFSET 0.000000 3.130431 0.000000 
					CHANNELS 3 Xrotation Zrotation Yrotation
					End Site
					{
						OFFSET 0.000000 3.130435 0.000000 
					}
				}
			}
			JOINT lCollar
			{
				OFFSET 3.470700 6.669187 -0.816635 
				CHANNELS 3 Yrotation Zrotation Xrotation
				JOINT lShldr
				{
					OFFSET 3.198488 0.000000 0.000000 
					CHANNELS 3 Zrotation Yrotation Xrotation
					JOINT lForeArm
					{
						OFFSET 10.139888 0.000000 0.000000 
						CHANNELS 3 Yrotation Zrotation Xrotation
						JOINT lHand
						{
							OFFSET 8.370511 0.000000 0.000000 
							CHANNELS 3 Zrotation Yrotation Xrotation
							End Site
							{
								OFFSET 4.083176 0.000000 0.000000 
							}
						}
					}
				}
			}
			JOINT rCollar
			{
				OFFSET -3.470700 6.669187 -0.816635 
				CHANNELS 3 Yrotation Zrotation Xrotation
				JOINT rShldr
				{
					OFFSET -3.198488 0.000000 0.000000 
					CHANNELS 3 Zrotation Yrotation Xrotation
					JOINT rForeArm
					{
						OFFSET -10.139888 0.000000 0.000000 
						CHANNELS 3 Yrotation Zrotation Xrotation
						JOINT rHand
						{
							OFFSET -8.370511 0.000000 0.000000 
							CHANNELS 3 Zrotation Yrotation Xrotation
							End Site
							{
								OFFSET -4.083176 0.000000 0.000000 
							}
						}
					}
				}
			}
		}
	}
	JOINT lThigh
	{
		OFFSET 5.308129 -1.633274 1.361059 
		CHANNELS 3 Xrotation Zrotation Yrotation
		JOINT lShin
		{
			OFFSET -2.041588 -20.007561 0.000000 
			CHANNELS 3 Xrotation Zrotation Yrotation
			JOINT lFoot
			{
				OFFSET 0.000000 -19.190928 -1.224953 
				CHANNELS 3 Xrotation Yrotation Zrotation
				End Site
				{
					OFFSET 0.000000 -2.449906 4.627600 
				}
			}
		}
	}
	JOINT rThigh
	{
		OFFSET -5.308129 -1.633274 1.361059 
		CHANNELS 3 Xrotation Zrotation Yrotation
		JOINT rShin
		{
			OFFSET 2.041588 -20.007561 0.000000 
			CHANNELS 3 Xrotation Zrotation Yrotation
			JOINT rFoot
			{
				OFFSET 0.000000 -19.190928 -1.224953 
				CHANNELS 3 Xrotation Yrotation Zrotation
				End Site
				{
					OFFSET 0.000000 -2.449906 4.627600 
				}
			}
		}
	}
}
MOTION
Frames: 6
Frame Time: 0.033333
316.179169 42.925339 6.059092 -6.379030 15.290101 98.526703 0.000000 0.000000 0.000000 2.614992 8.253234 0.668918 26.455841 -3.573564 -23.905909 19.111422 -0.240046 -0.073862 5.838688 19.378628 -14.726185 -79.285782 32.081333 69.741371 -48.162556 -1.909213 -20.962994 -0.104855 -3.888543 -1.134411 -3.661577 -23.035852 -16.923597 86.298973 -28.917429 37.217289 37.032104 0.323115 17.148708 -10.547963 0.861941 -1.686814 9.238849 17.460560 -8.603374 54.694256 -0.279532 -4.463568 13.356718 1.445451 -22.394505 5.575570 4.774184 -27.406065 18.756308 2.094617 12.635477 -10.138121 5.545620 -7.967238 
317.279938 42.919449 6.306248 -6.850185 15.140330 97.920822 0.000000 0.000000 0.000000 2.761391 8.018145 0.717819 26.351913 -3.159427 -23.149347 19.082117 -0.230466 -0.071961 5.693063 19.644358 -14.697386 -79.469330 31.898479 69.735435 -48.395805 -1.893366 -20.702772 -0.171670 -3.907546 -1.134381 -3.759819 -22.712606 -16.706413 86.333092 -28.628372 37.127865 37.127247 0.271676 17.282419 -9.775206 1.092338 -1.673954 5.868515 17.925539 -7.604855 58.522968 0.075332 -3.308226 19.214441 1.317747 -23.330311 6.532603 5.819044 -26.998846 18.356146 2.104488 12.838512 -10.727580 5.604877 -8.933690 
318.267944 42.915668 6.513463 -7.398032 14.589849 97.395645 0.000000 0.000000 0.000000 2.692101 7.979578 0.706465 26.155859 -2.809276 -22.454597 18.965006 -0.317010 -0.097077 5.523121 19.740614 -14.525271 -79.679100 31.215378 69.858360 -48.506592 -1.861639 -20.021460 -1.729402 -4.335269 -1.021702 -3.882070 -22.461035 -16.393288 86.327393 -28.322763 36.835781 37.123016 0.245629 17.525290 -9.821344 1.070259 -1.674033 1.553243 18.282763 -6.622707 61.929085 0.375359 -4.557671 23.357893 0.969918 -21.274403 7.089403 6.815312 -26.685209 17.727051 2.133387 13.070716 -11.196409 5.630011 -9.639586 
318.960815 42.922047 6.668811 -8.017884 13.852962 96.740318 0.000000 0.000000 0.000000 2.555221 8.165811 0.822639 25.897184 -2.516944 -21.836523 18.769838 -0.442166 -0.137956 5.295999 19.730392 -14.301427 -79.876961 30.459229 70.203735 -48.459396 -1.894100 -20.641266 -2.899863 -4.655438 -0.925253 -4.028455 -22.304487 -16.120142 86.299866 -28.187849 36.530819 37.064335 0.220728 18.076248 -11.175497 0.681037 -1.687575 -2.958660 18.651493 -5.493330 65.387733 0.657914 -7.303577 21.776815 0.790118 -18.794514 7.448677 7.727313 -26.584187 16.974659 2.150221 13.508060 -11.448559 5.641225 -9.879338 
319.166534 42.958687 6.788162 -8.416675 13.181885 96.165077 0.000000 0.000000 0.000000 2.672379 7.979705 0.947894 25.534691 -1.967075 -21.217823 18.437811 -0.452240 -0.137062 5.045466 20.055899 -14.119335 -80.128769 29.679085 70.238525 -48.498859 -1.899831 -20.800056 -3.171497 -4.734898 -0.902287 -4.377740 -21.917330 -15.724747 86.192253 -27.877972 36.361160 36.734158 0.280205 17.987597 -11.476635 0.594107 -1.694933 -7.115723 18.782471 -4.445236 68.249405 0.901587 -9.322318 16.825111 0.763044 -16.717543 8.142406 8.372782 -26.847422 15.778157 2.209567 14.489923 -11.491883 5.670452 -10.016612 
319.780975 43.002651 6.882586 -8.802132 12.444283 95.570053 0.000000 0.000000 0.000000 2.690643 7.755218 0.832721 25.298862 -1.492597 -20.384792 17.968954 -0.375783 -0.110868 4.911956 20.403458 -14.302851 -80.221893 29.469063 70.207779 -48.529858 -1.902393 -20.931425 -3.298569 -4.761839 -0.898792 -4.569654 -21.639807 -15.699769 86.199287 -28.079046 36.335129 36.323627 0.322667 18.017759 -11.196327 0.675559 -1.693266 -11.003249 19.000513 -3.053985 70.113693 1.076192 -10.609572 10.839089 0.639189 -13.182096 8.708213 8.966746 -26.989702 14.663181 2.251481 15.406110 -11.507401 5.682614 -10.151382 
